<?xml version="1.0" encoding="UTF-8" standalone="no"?> <!-- Created with Vectornator for iOS (http://vectornator.io/) --><!DOCTYPE svg PUBLIC "-//W3C//DTD SVG 1.1//EN" "http://www.w3.org/Graphics/SVG/1.1/DTD/svg11.dtd">
<svg height="100%" style="fill-rule:evenodd;clip-rule:evenodd;stroke-linecap:round;stroke-linejoin:round;" xmlns:xlink="http://www.w3.org/1999/xlink" xmlns="http://www.w3.org/2000/svg" xml:space="preserve" width="100%" xmlns:vectornator="http://vectornator.io" version="1.1" viewBox="0 0 224 48">
<metadata>
<vectornator:setting key="DimensionsVisible" value="1"/>
<vectornator:setting key="SnapToGrid" value="0"/>
<vectornator:setting key="SnapToPoints" value="0"/>
<vectornator:setting key="GuidesVisible" value="1"/>
<vectornator:setting key="RulersVisible" value="1"/>
<vectornator:setting key="SnapToEdges" value="0"/>
<vectornator:setting key="DisplayWhiteBackground" value="0"/>
<vectornator:setting key="SnapToGuides" value="1"/>
<vectornator:setting key="GridSpacing" value="36"/>
<vectornator:setting key="Units" value="Pixels"/>
<vectornator:setting key="DynamicGuides" value="1"/>
<vectornator:setting key="New" value="1"/>
</metadata>
<defs/>
<g id="Calque 1" vectornator:layerName="Calque 1">
<path d="M18.4638+13.2057L18.4638+13.4556C17.8562+13.4948+17.3196+13.5683+16.8541+13.6761C16.3886+13.7839+15.9206+14.0534+15.4502+14.4846C15.1072+14.808+14.8745+15.0236+14.752+15.1314C14.6295+15.2392+14.4947+15.3617+14.3477+15.4989L6.96814+22.7903L15.7883+32.7571C16.4743+33.5215+17.0599+34.0017+17.545+34.1977C18.0301+34.3937+18.65+34.5358+19.4046+34.624L19.4046+34.8593L14.7299+34.8593L5.0424+23.9075L5.0424+32.2426C5.0424+33.7812+5.81661+34.575+7.36505+34.624L7.36505+34.8593L0.5+34.8593L0.5+34.624C0.931209+34.6044+1.31342+34.5236+1.64662+34.3815C1.97983+34.2394+2.25669+33.9944+2.47719+33.6465C2.6977+33.2986+2.80795+32.8306+2.80795+32.2426L2.80795+15.8076C2.80795+14.8962+2.58009+14.2813+2.12438+13.9628C1.66867+13.6442+1.12721+13.4752+0.5+13.4556L0.5+13.2057L7.36505+13.2057L7.36505+13.4556C5.81661+13.5046+5.0424+14.2886+5.0424+15.8076L5.0424+23.8046L13.3481+15.4989C13.3481+15.5185+13.3677+15.4891+13.4069+15.4107C13.8675+14.9893+14.0978+14.6267+14.0978+14.3229C14.0978+13.9799+13.963+13.7643+13.6935+13.6761C13.424+13.5879+13.0198+13.5144+12.4808+13.4556L12.4808+13.2057L18.4638+13.2057ZM47.3452+24.0545C47.3452+26.0832+46.8429+27.9697+45.8384+29.7141C44.8339+31.4586+43.4643+32.8478+41.7297+33.8817C39.995+34.9156+38.0742+35.4326+35.9672+35.4326C33.8503+35.4326+31.9099+34.9156+30.1458+33.8817C28.3818+32.8478+26.9926+31.4537+25.9783+29.6994C24.964+27.9452+24.4568+26.0342+24.4568+23.9663C24.4568+22.3787+24.7582+20.8866+25.3609+19.4901C25.9636+18.0935+26.8064+16.8759+27.8893+15.837C28.9723+14.7982+30.2071+13.9946+31.5938+13.4262C32.9805+12.8578+34.4285+12.5736+35.9378+12.5736C37.4176+12.5736+38.8386+12.8455+40.2008+13.3894C41.5631+13.9334+42.7856+14.7198+43.8686+15.7488C44.9515+16.7779+45.8017+17.998+46.4191+19.4092C47.0365+20.8205+47.3452+22.3689+47.3452+24.0545ZM44.7579+24.1133C44.7579+21.2321+44.2483+18.978+43.2291+17.3512C42.2099+15.7243+41.0339+14.6341+39.701+14.0804C38.3682+13.5266+37.1138+13.2498+35.9378+13.2498C35.0263+13.2498+34.0806+13.3992+33.1006+13.6982C32.1206+13.9971+31.1675+14.5434+30.2414+15.3372C29.3153+16.1311+28.5533+17.2483+27.9555+18.6889C27.3577+20.1295+27.0588+21.9083+27.0588+24.0251C27.0588+25.8872+27.3062+27.5115+27.8011+28.8983C28.296+30.285+28.9772+31.4169+29.8445+32.294C30.7118+33.1712+31.6673+33.8033+32.711+34.1904C33.7548+34.5775+34.8401+34.7711+35.9672+34.7711C36.9766+34.7711+37.9982+34.5922+39.0322+34.2345C40.0661+33.8768+41.0118+33.2937+41.8693+32.4852C42.7268+31.6766+43.4227+30.579+43.9568+29.1923C44.4909+27.8056+44.7579+26.1126+44.7579+24.1133ZM55.0876+13.5144L54.7936+13.5144L54.7936+13.2057L62.2907+13.2057C63.4961+13.2057+64.5178+13.3919+65.3557+13.7643C66.1936+14.1367+66.8454+14.6096+67.3109+15.1829C67.7764+15.7562+68.1096+16.3614+68.3105+16.9984C68.5114+17.6354+68.6118+18.2626+68.6118+18.88C68.6118+19.664+68.4477+20.4162+68.1194+21.1365C67.7911+21.8568+67.2864+22.4767+66.6053+22.9961C65.9241+23.5155+65.074+23.8683+64.0547+24.0545L64.0547+24.1133C65.3484+24.7405+66.544+25.9852+67.6416+27.8472L69.5968+31.1548C70.4788+32.6346+71.1869+33.5705+71.721+33.9625C72.2551+34.3545+72.7818+34.575+73.3012+34.624L73.3012+34.8593L69.3616+34.8593C69.195+34.6436+69.0382+34.4354+68.8912+34.2345C68.7441+34.0336+68.5873+33.8204+68.4207+33.595C68.3227+33.448+68.1782+33.2251+67.9871+32.9262C67.796+32.6273+67.6808+32.4582+67.6416+32.419L65.0544+28.1412C64.535+27.269+64.0033+26.5609+63.4594+26.017C62.9155+25.4731+62.4083+25.0835+61.9379+24.8483C61.4675+24.6131+61.0436+24.4661+60.6663+24.4073C60.289+24.3485+59.8456+24.3191+59.3359+24.3191L59.3359+32.2426C59.3359+33.7812+60.12+34.575+61.688+34.624L61.688+34.8593L54.7936+34.8593L54.7936+34.624C55.2248+34.6044+55.607+34.5236+55.9402+34.3815C56.2734+34.2394+56.5502+33.9944+56.7707+33.6465C56.9912+33.2986+57.1015+32.8306+57.1015+32.2426L57.1015+15.8664C57.1015+15.004+56.8908+14.3964+56.4694+14.0436C56.048+13.6908+55.5874+13.5144+55.0876+13.5144ZM59.3359+23.7458L60.5708+23.7458C61.8644+23.7458+62.9253+23.5596+63.7534+23.1872C64.5815+22.8148+65.1818+22.2831+65.5542+21.5922C65.9266+20.9013+66.1128+20.056+66.1128+19.0564C66.1128+18.2234+65.9462+17.4075+65.613+16.6088C65.2798+15.8101+64.7138+15.1388+63.9151+14.5949C63.1164+14.051+62.0408+13.779+60.6884+13.779C60.1396+13.779+59.6888+13.8231+59.3359+13.9113L59.3359+23.7458ZM100.874+24.0545C100.874+26.0832+100.372+27.9697+99.3676+29.7141C98.363+31.4586+96.9934+32.8478+95.2588+33.8817C93.5242+34.9156+91.6033+35.4326+89.4963+35.4326C87.3794+35.4326+85.439+34.9156+83.675+33.8817C81.9109+32.8478+80.5217+31.4537+79.5074+29.6994C78.4931+27.9452+77.9859+26.0342+77.9859+23.9663C77.9859+22.3787+78.2873+20.8866+78.89+19.4901C79.4927+18.0935+80.3355+16.8759+81.4185+15.837C82.5014+14.7982+83.7362+13.9946+85.1229+13.4262C86.5097+12.8578+87.9577+12.5736+89.4669+12.5736C90.9467+12.5736+92.3678+12.8455+93.73+13.3894C95.0922+13.9334+96.3148+14.7198+97.3977+15.7488C98.4806+16.7779+99.3308+17.998+99.9482+19.4092C100.566+20.8205+100.874+22.3689+100.874+24.0545ZM98.2871+24.1133C98.2871+21.2321+97.7775+18.978+96.7582+17.3512C95.739+15.7243+94.563+14.6341+93.2302+14.0804C91.8973+13.5266+90.6429+13.2498+89.4669+13.2498C88.5555+13.2498+87.6097+13.3992+86.6297+13.6982C85.6497+13.9971+84.6966+14.5434+83.7705+15.3372C82.8444+16.1311+82.0824+17.2483+81.4846+18.6889C80.8868+20.1295+80.5879+21.9083+80.5879+24.0251C80.5879+25.8872+80.8354+27.5115+81.3303+28.8983C81.8252+30.285+82.5063+31.4169+83.3736+32.294C84.2409+33.1712+85.1964+33.8033+86.2402+34.1904C87.2839+34.5775+88.3693+34.7711+89.4963+34.7711C90.5057+34.7711+91.5274+34.5922+92.5613+34.2345C93.5952+33.8768+94.5409+33.2937+95.3985+32.4852C96.256+31.6766+96.9518+30.579+97.4859+29.1923C98.02+27.8056+98.2871+26.1126+98.2871+24.1133ZM136.415+13.2057L136.415+13.4556C135.974+13.5438+135.582+13.708+135.239+13.9481C134.896+14.1882+134.558+14.5851+134.225+15.1388C133.891+15.6925+133.544+16.4937+133.181+17.5423L127.11+35.4326L126.889+35.4326L121.362+17.5423L121.288+17.5423L115.276+35.4326L115.055+35.4326L108.896+15.7047C108.671+15.0089+108.401+14.5042+108.087+14.1906C107.774+13.877+107.487+13.6834+107.228+13.6099C106.968+13.5364+106.647+13.485+106.265+13.4556L106.265+13.2057L112.983+13.2057L112.983+13.4556C112.395+13.4948+111.951+13.6712+111.652+13.9848C111.353+14.2984+111.204+14.6855+111.204+15.1461C111.204+15.4989+111.287+15.9399+111.454+16.4692L116.026+31.096L116.084+31.096L120.994+16.4692L120.789+15.8076C120.593+15.1706+120.299+14.6292+119.907+14.1833C119.515+13.7374+118.902+13.4948+118.069+13.4556L118.069+13.2057L124.993+13.2057L124.993+13.4556C124.209+13.4654+123.702+13.6663+123.471+14.0583C123.241+14.4503+123.126+14.8129+123.126+15.1461C123.126+15.5675+123.199+16.0085+123.346+16.4692L127.859+31.096L127.918+31.096L132.519+17.5423C132.657+17.1797+132.782+16.7534+132.894+16.2634C133.007+15.7733+133.063+15.3568+133.063+15.0138C133.063+14.3474+132.919+13.9309+132.63+13.7643C132.341+13.5977+131.873+13.4948+131.226+13.4556L131.226+13.2057L136.415+13.2057ZM164.473+24.0545C164.473+26.0832+163.971+27.9697+162.966+29.7141C161.962+31.4586+160.592+32.8478+158.858+33.8817C157.123+34.9156+155.202+35.4326+153.095+35.4326C150.978+35.4326+149.038+34.9156+147.274+33.8817C145.51+32.8478+144.121+31.4537+143.106+29.6994C142.092+27.9452+141.585+26.0342+141.585+23.9663C141.585+22.3787+141.886+20.8866+142.489+19.4901C143.092+18.0935+143.934+16.8759+145.017+15.837C146.1+14.7982+147.335+13.9946+148.722+13.4262C150.109+12.8578+151.557+12.5736+153.066+12.5736C154.546+12.5736+155.967+12.8455+157.329+13.3894C158.691+13.9334+159.914+14.7198+160.997+15.7488C162.079+16.7779+162.93+17.998+163.547+19.4092C164.164+20.8205+164.473+22.3689+164.473+24.0545ZM161.886+24.1133C161.886+21.2321+161.376+18.978+160.357+17.3512C159.338+15.7243+158.162+14.6341+156.829+14.0804C155.496+13.5266+154.242+13.2498+153.066+13.2498C152.154+13.2498+151.209+13.3992+150.229+13.6982C149.249+13.9971+148.295+14.5434+147.369+15.3372C146.443+16.1311+145.681+17.2483+145.083+18.6889C144.486+20.1295+144.187+21.9083+144.187+24.0251C144.187+25.8872+144.434+27.5115+144.929+28.8983C145.424+30.285+146.105+31.4169+146.972+32.294C147.84+33.1712+148.795+33.8033+149.839+34.1904C150.883+34.5775+151.968+34.7711+153.095+34.7711C154.105+34.7711+155.126+34.5922+156.16+34.2345C157.194+33.8768+158.14+33.2937+158.997+32.4852C159.855+31.6766+160.551+30.579+161.085+29.1923C161.619+27.8056+161.886+26.1126+161.886+24.1133ZM195.339+24.0545C195.339+26.0832+194.837+27.9697+193.832+29.7141C192.828+31.4586+191.458+32.8478+189.724+33.8817C187.989+34.9156+186.068+35.4326+183.961+35.4326C181.844+35.4326+179.904+34.9156+178.14+33.8817C176.376+32.8478+174.987+31.4537+173.972+29.6994C172.958+27.9452+172.451+26.0342+172.451+23.9663C172.451+22.3787+172.752+20.8866+173.355+19.4901C173.958+18.0935+174.8+16.8759+175.883+15.837C176.966+14.7982+178.201+13.9946+179.588+13.4262C180.974+12.8578+182.422+12.5736+183.932+12.5736C185.412+12.5736+186.833+12.8455+188.195+13.3894C189.557+13.9334+190.78+14.7198+191.863+15.7488C192.945+16.7779+193.796+17.998+194.413+19.4092C195.03+20.8205+195.339+22.3689+195.339+24.0545ZM192.752+24.1133C192.752+21.2321+192.242+18.978+191.223+17.3512C190.204+15.7243+189.028+14.6341+187.695+14.0804C186.362+13.5266+185.108+13.2498+183.932+13.2498C183.02+13.2498+182.075+13.3992+181.095+13.6982C180.115+13.9971+179.161+14.5434+178.235+15.3372C177.309+16.1311+176.547+17.2483+175.949+18.6889C175.352+20.1295+175.053+21.9083+175.053+24.0251C175.053+25.8872+175.3+27.5115+175.795+28.8983C176.29+30.285+176.971+31.4169+177.838+32.294C178.706+33.1712+179.661+33.8033+180.705+34.1904C181.749+34.5775+182.834+34.7711+183.961+34.7711C184.971+34.7711+185.992+34.5922+187.026+34.2345C188.06+33.8768+189.006+33.2937+189.863+32.4852C190.721+31.6766+191.417+30.579+191.951+29.1923C192.485+27.8056+192.752+26.1126+192.752+24.1133ZM202.876+13.4556L202.876+13.2057L211.211+13.2057C212.377+13.2057+213.453+13.3061+214.437+13.507C215.422+13.708+216.304+13.975+217.084+14.3082C217.863+14.6414+218.536+15.0065+219.105+15.4034C219.673+15.8003+220.153+16.2046+220.545+16.6162C221.231+17.3022+221.815+18.0641+222.295+18.9021C222.775+19.74+223.135+20.6244+223.375+21.5555C223.615+22.4865+223.735+23.4469+223.735+24.4367C223.735+25.4266+223.618+26.3674+223.383+27.2592C223.147+28.151+222.809+28.9767+222.368+29.7362C221.927+30.4957+221.401+31.1842+220.788+31.8016C220.176+32.419+219.463+32.9776+218.649+33.4774C217.953+33.889+217.155+34.2222+216.253+34.477C215.351+34.7318+214.131+34.8593+212.593+34.8593L202.876+34.8593L202.876+34.624L203.17+34.624C203.846+34.624+204.351+34.3692+204.684+33.8596C205.017+33.35+205.184+32.811+205.184+32.2426L205.184+15.8958C205.184+15.347+205.093+14.8864+204.912+14.514C204.73+14.1416+204.488+13.8721+204.184+13.7055C203.88+13.5389+203.542+13.4556+203.17+13.4556L202.876+13.4556ZM207.418+14.2347L207.418+31.39C207.418+32.2328+207.553+32.8527+207.822+33.2496C208.092+33.6465+208.511+33.9037+209.079+34.0213C209.648+34.1389+210.481+34.1977+211.578+34.1977C213.146+34.1977+214.469+34.0434+215.547+33.7347C216.625+33.426+217.669+32.7375+218.679+31.6693C219.423+30.8755+220.021+29.9052+220.472+28.7586C220.923+27.612+221.148+26.2253+221.148+24.5984C221.148+23.3146+220.967+22.043+220.604+20.7837C220.242+19.5244+219.688+18.4047+218.943+17.4247C218.11+16.3173+217.039+15.4499+215.731+14.8227C214.423+14.1955+212.847+13.8819+211.005+13.8819C210.054+13.8819+208.859+13.9995+207.418+14.2347ZM35.0622+0.17L35.0622+10.4648L36.6134+10.4648L36.6134+1.72126L183.335+1.72126L183.335+10.4648L184.914+10.4648L184.914+0.17L35.0622+0.17ZM35.0622+37.5414L35.0622+47.8361L184.914+47.8361L184.914+37.5414L183.335+37.5414L183.335+46.2849L36.6134+46.2849L36.6134+37.5414L35.0622+37.5414Z" opacity="1" fill="#000000"/>
</g>
</svg>
