<?xml version="1.0" encoding="UTF-8" standalone="no"?> <!-- Created with Vectornator for iOS (http://vectornator.io/) --><!DOCTYPE svg PUBLIC "-//W3C//DTD SVG 1.1//EN" "http://www.w3.org/Graphics/SVG/1.1/DTD/svg11.dtd">
<svg style="fill-rule:evenodd;clip-rule:evenodd;stroke-linecap:round;stroke-linejoin:round;" xmlns:vectornator="http://vectornator.io" xmlns:xlink="http://www.w3.org/1999/xlink" xmlns="http://www.w3.org/2000/svg" xml:space="preserve" version="1.1" viewBox="0 0 256 144">
<metadata>
<vectornator:setting key="DimensionsVisible" value="1"/>
<vectornator:setting key="SnapToGrid" value="0"/>
<vectornator:setting key="SnapToPoints" value="0"/>
<vectornator:setting key="GuidesVisible" value="1"/>
<vectornator:setting key="RulersVisible" value="1"/>
<vectornator:setting key="CMYKEnabledKey" value="0"/>
<vectornator:setting key="SnapToEdges" value="0"/>
<vectornator:setting key="DisplayWhiteBackground" value="0"/>
<vectornator:setting key="SnapToGuides" value="1"/>
<vectornator:setting key="GridSpacing" value="36"/>
<vectornator:setting key="Units" value="Pixels"/>
<vectornator:setting key="DynamicGuides" value="1"/>
<vectornator:setting key="New" value="1"/>
</metadata>
<defs/>
<g id="Calque 1" vectornator:layerName="Calque 1">
<path d="M34.3461+61.2026L34.3461+61.4525C33.7385+61.4917+33.2019+61.5652+32.7364+61.673C32.2709+61.7808+31.8029+62.0503+31.3325+62.4815C30.9895+62.805+30.7567+63.0206+30.6342+63.1284C30.5117+63.2362+30.377+63.3587+30.23+63.4959L22.8504+70.7872L31.6706+80.754C32.3566+81.5185+32.9422+81.9987+33.4273+82.1947C33.9124+82.3907+34.5323+82.5328+35.2869+82.621L35.2869+82.8562L30.6122+82.8562L20.9247+71.9044L20.9247+80.2395C20.9247+81.7782+21.6989+82.572+23.2473+82.621L23.2473+82.8562L16.3823+82.8562L16.3823+82.621C16.8135+82.6014+17.1957+82.5205+17.5289+82.3784C17.8621+82.2363+18.139+81.9913+18.3595+81.6434C18.58+81.2955+18.6902+80.8275+18.6902+80.2395L18.6902+63.8046C18.6902+62.8932+18.4624+62.2782+18.0067+61.9597C17.551+61.6412+17.0095+61.4721+16.3823+61.4525L16.3823+61.2026L23.2473+61.2026L23.2473+61.4525C21.6989+61.5015+20.9247+62.2855+20.9247+63.8046L20.9247+71.8015L29.2304+63.4959C29.2304+63.5155+29.25+63.4861+29.2892+63.4077C29.7498+62.9863+29.9801+62.6236+29.9801+62.3198C29.9801+61.9768+29.8453+61.7612+29.5758+61.673C29.3063+61.5848+28.902+61.5113+28.363+61.4525L28.363+61.2026L34.3461+61.2026ZM63.2275+72.0515C63.2275+74.0801+62.7252+75.9666+61.7207+77.7111C60.7162+79.4555+59.3466+80.8447+57.612+81.8786C55.8773+82.9125+53.9565+83.4295+51.8494+83.4295C49.7326+83.4295+47.7921+82.9125+46.0281+81.8786C44.2641+80.8447+42.8749+79.4506+41.8606+77.6964C40.8462+75.9421+40.3391+74.0311+40.3391+71.9632C40.3391+70.3756+40.6404+68.8835+41.2432+67.487C41.8459+66.0905+42.6887+64.8728+43.7716+63.834C44.8545+62.7952+46.0894+61.9915+47.4761+61.4231C48.8628+60.8547+50.3108+60.5705+51.82+60.5705C53.2999+60.5705+54.7209+60.8425+56.0831+61.3864C57.4454+61.9303+58.6679+62.7168+59.7509+63.7458C60.8338+64.7748+61.6839+65.9949+62.3014+67.4062C62.9188+68.8174+63.2275+70.3658+63.2275+72.0515ZM60.6402+72.1103C60.6402+69.229+60.1306+66.9749+59.1114+65.3481C58.0922+63.7213+56.9161+62.631+55.5833+62.0773C54.2505+61.5236+52.9961+61.2467+51.82+61.2467C50.9086+61.2467+49.9629+61.3962+48.9829+61.6951C48.0029+61.994+47.0498+62.5403+46.1237+63.3342C45.1975+64.128+44.4356+65.2452+43.8378+66.6858C43.2399+68.1265+42.941+69.9052+42.941+72.0221C42.941+73.8841+43.1885+75.5085+43.6834+76.8952C44.1783+78.2819+44.8594+79.4139+45.7268+80.291C46.5941+81.1681+47.5496+81.8002+48.5933+82.1873C49.637+82.5744+50.7224+82.768+51.8494+82.768C52.8589+82.768+53.8805+82.5891+54.9144+82.2314C55.9484+81.8737+56.8941+81.2906+57.7516+80.4821C58.6091+79.6736+59.3049+78.5759+59.8391+77.1892C60.3732+75.8025+60.6402+74.1095+60.6402+72.1103ZM70.9698+61.5113L70.6758+61.5113L70.6758+61.2026L78.173+61.2026C79.3784+61.2026+80.4001+61.3888+81.238+61.7612C82.0759+62.1336+82.7276+62.6065+83.1931+63.1798C83.6587+63.7531+83.9919+64.3583+84.1928+64.9953C84.3937+65.6323+84.4941+66.2595+84.4941+66.8769C84.4941+67.661+84.33+68.4131+84.0017+69.1334C83.6734+69.8538+83.1686+70.4736+82.4875+70.993C81.8064+71.5124+80.9563+71.8652+79.937+72.0515L79.937+72.1103C81.2307+72.7375+82.4263+73.9821+83.5239+75.8441L85.479+79.1517C86.3611+80.6315+87.0691+81.5675+87.6032+81.9595C88.1374+82.3515+88.6641+82.572+89.1835+82.621L89.1835+82.8562L85.2438+82.8562C85.0772+82.6406+84.9204+82.4323+84.7734+82.2314C84.6264+82.0305+84.4696+81.8174+84.303+81.592C84.205+81.445+84.0605+81.222+83.8694+80.9231C83.6783+80.6242+83.5631+80.4551+83.5239+80.4159L80.9367+76.1381C80.4172+75.2659+79.8856+74.5579+79.3417+74.0139C78.7978+73.47+78.2906+73.0805+77.8202+72.8453C77.3498+72.6101+76.9259+72.4631+76.5486+72.4043C76.1713+72.3455+75.7278+72.3161+75.2182+72.3161L75.2182+80.2395C75.2182+81.7782+76.0022+82.572+77.5703+82.621L77.5703+82.8562L70.6758+82.8562L70.6758+82.621C71.107+82.6014+71.4892+82.5205+71.8225+82.3784C72.1557+82.2363+72.4325+81.9913+72.653+81.6434C72.8735+81.2955+72.9838+80.8275+72.9838+80.2395L72.9838+63.8634C72.9838+63.001+72.7731+62.3933+72.3517+62.0405C71.9303+61.6877+71.4696+61.5113+70.9698+61.5113ZM75.2182+71.7427L76.4531+71.7427C77.7467+71.7427+78.8076+71.5565+79.6357+71.1841C80.4638+70.8117+81.0641+70.2801+81.4365+69.5891C81.8089+68.8982+81.9951+68.053+81.9951+67.0533C81.9951+66.2203+81.8285+65.4045+81.4953+64.6057C81.1621+63.807+80.5961+63.1357+79.7974+62.5918C78.9987+62.0479+77.9231+61.7759+76.5707+61.7759C76.0218+61.7759+75.571+61.82+75.2182+61.9082L75.2182+71.7427ZM116.757+72.0515C116.757+74.0801+116.254+75.9666+115.25+77.7111C114.245+79.4555+112.876+80.8447+111.141+81.8786C109.406+82.9125+107.486+83.4295+105.379+83.4295C103.262+83.4295+101.321+82.9125+99.5572+81.8786C97.7932+80.8447+96.404+79.4506+95.3897+77.6964C94.3754+75.9421+93.8682+74.0311+93.8682+71.9632C93.8682+70.3756+94.1696+68.8835+94.7723+67.487C95.375+66.0905+96.2178+64.8728+97.3007+63.834C98.3837+62.7952+99.6185+61.9915+101.005+61.4231C102.392+60.8547+103.84+60.5705+105.349+60.5705C106.829+60.5705+108.25+60.8425+109.612+61.3864C110.974+61.9303+112.197+62.7168+113.28+63.7458C114.363+64.7748+115.213+65.9949+115.83+67.4062C116.448+68.8174+116.757+70.3658+116.757+72.0515ZM114.169+72.1103C114.169+69.229+113.66+66.9749+112.641+65.3481C111.621+63.7213+110.445+62.631+109.112+62.0773C107.78+61.5236+106.525+61.2467+105.349+61.2467C104.438+61.2467+103.492+61.3962+102.512+61.6951C101.532+61.994+100.579+62.5403+99.6528+63.3342C98.7267+64.128+97.9647+65.2452+97.3669+66.6858C96.7691+68.1265+96.4702+69.9052+96.4702+72.0221C96.4702+73.8841+96.7176+75.5085+97.2125+76.8952C97.7075+78.2819+98.3886+79.4139+99.2559+80.291C100.123+81.1681+101.079+81.8002+102.122+82.1873C103.166+82.5744+104.252+82.768+105.379+82.768C106.388+82.768+107.41+82.5891+108.444+82.2314C109.478+81.8737+110.423+81.2906+111.281+80.4821C112.138+79.6736+112.834+78.5759+113.368+77.1892C113.902+75.8025+114.169+74.1095+114.169+72.1103ZM152.297+61.2026L152.297+61.4525C151.856+61.5407+151.464+61.7049+151.121+61.945C150.778+62.1851+150.44+62.582+150.107+63.1357C149.774+63.6894+149.426+64.4906+149.063+65.5392L142.992+83.4295L142.771+83.4295L137.244+65.5392L137.171+65.5392L131.158+83.4295L130.938+83.4295L124.778+63.7017C124.553+63.0059+124.283+62.5011+123.97+62.1875C123.656+61.8739+123.369+61.6804+123.11+61.6069C122.85+61.5334+122.529+61.4819+122.147+61.4525L122.147+61.2026L128.865+61.2026L128.865+61.4525C128.277+61.4917+127.833+61.6681+127.535+61.9817C127.236+62.2953+127.086+62.6825+127.086+63.1431C127.086+63.4959+127.17+63.9369+127.336+64.4661L131.908+79.0929L131.967+79.0929L136.877+64.4661L136.671+63.8046C136.475+63.1676+136.181+62.6261+135.789+62.1802C135.397+61.7343+134.784+61.4917+133.951+61.4525L133.951+61.2026L140.875+61.2026L140.875+61.4525C140.091+61.4623+139.584+61.6632+139.354+62.0552C139.123+62.4472+139.008+62.8099+139.008+63.1431C139.008+63.5645+139.082+64.0055+139.229+64.4661L143.742+79.0929L143.8+79.0929L148.402+65.5392C148.539+65.1766+148.664+64.7503+148.777+64.2603C148.889+63.7703+148.946+63.3538+148.946+63.0108C148.946+62.3443+148.801+61.9278+148.512+61.7612C148.223+61.5946+147.755+61.4917+147.108+61.4525L147.108+61.2026L152.297+61.2026ZM180.355+72.0515C180.355+74.0801+179.853+75.9666+178.849+77.7111C177.844+79.4555+176.475+80.8447+174.74+81.8786C173.005+82.9125+171.084+83.4295+168.977+83.4295C166.861+83.4295+164.92+82.9125+163.156+81.8786C161.392+80.8447+160.003+79.4506+158.989+77.6964C157.974+75.9421+157.467+74.0311+157.467+71.9632C157.467+70.3756+157.768+68.8835+158.371+67.487C158.974+66.0905+159.817+64.8728+160.9+63.834C161.983+62.7952+163.217+61.9915+164.604+61.4231C165.991+60.8547+167.439+60.5705+168.948+60.5705C170.428+60.5705+171.849+60.8425+173.211+61.3864C174.573+61.9303+175.796+62.7168+176.879+63.7458C177.962+64.7748+178.812+65.9949+179.429+67.4062C180.047+68.8174+180.355+70.3658+180.355+72.0515ZM177.768+72.1103C177.768+69.229+177.259+66.9749+176.239+65.3481C175.22+63.7213+174.044+62.631+172.711+62.0773C171.378+61.5236+170.124+61.2467+168.948+61.2467C168.037+61.2467+167.091+61.3962+166.111+61.6951C165.131+61.994+164.178+62.5403+163.252+63.3342C162.326+64.128+161.564+65.2452+160.966+66.6858C160.368+68.1265+160.069+69.9052+160.069+72.0221C160.069+73.8841+160.316+75.5085+160.811+76.8952C161.306+78.2819+161.987+79.4139+162.855+80.291C163.722+81.1681+164.678+81.8002+165.721+82.1873C166.765+82.5744+167.85+82.768+168.977+82.768C169.987+82.768+171.009+82.5891+172.042+82.2314C173.076+81.8737+174.022+81.2906+174.88+80.4821C175.737+79.6736+176.433+78.5759+176.967+77.1892C177.501+75.8025+177.768+74.1095+177.768+72.1103ZM211.221+72.0515C211.221+74.0801+210.719+75.9666+209.715+77.7111C208.71+79.4555+207.341+80.8447+205.606+81.8786C203.871+82.9125+201.95+83.4295+199.843+83.4295C197.727+83.4295+195.786+82.9125+194.022+81.8786C192.258+80.8447+190.869+79.4506+189.855+77.6964C188.84+75.9421+188.333+74.0311+188.333+71.9632C188.333+70.3756+188.634+68.8835+189.237+67.487C189.84+66.0905+190.683+64.8728+191.766+63.834C192.848+62.7952+194.083+61.9915+195.47+61.4231C196.857+60.8547+198.305+60.5705+199.814+60.5705C201.294+60.5705+202.715+60.8425+204.077+61.3864C205.439+61.9303+206.662+62.7168+207.745+63.7458C208.828+64.7748+209.678+65.9949+210.295+67.4062C210.913+68.8174+211.221+70.3658+211.221+72.0515ZM208.634+72.1103C208.634+69.229+208.125+66.9749+207.105+65.3481C206.086+63.7213+204.91+62.631+203.577+62.0773C202.244+61.5236+200.99+61.2467+199.814+61.2467C198.903+61.2467+197.957+61.3962+196.977+61.6951C195.997+61.994+195.044+62.5403+194.118+63.3342C193.191+64.128+192.43+65.2452+191.832+66.6858C191.234+68.1265+190.935+69.9052+190.935+72.0221C190.935+73.8841+191.182+75.5085+191.677+76.8952C192.172+78.2819+192.853+79.4139+193.721+80.291C194.588+81.1681+195.544+81.8002+196.587+82.1873C197.631+82.5744+198.716+82.768+199.843+82.768C200.853+82.768+201.874+82.5891+202.908+82.2314C203.942+81.8737+204.888+81.2906+205.746+80.4821C206.603+79.6736+207.299+78.5759+207.833+77.1892C208.367+75.8025+208.634+74.1095+208.634+72.1103ZM218.758+61.4525L218.758+61.2026L227.093+61.2026C228.259+61.2026+229.335+61.3031+230.32+61.504C231.305+61.7049+232.187+61.9719+232.966+62.3051C233.745+62.6384+234.419+63.0034+234.987+63.4003C235.556+63.7972+236.036+64.2015+236.428+64.6131C237.114+65.2991+237.697+66.0611+238.177+66.899C238.657+67.7369+239.017+68.6214+239.258+69.5524C239.498+70.4834+239.618+71.4438+239.618+72.4337C239.618+73.4235+239.5+74.3643+239.265+75.2561C239.03+76.1479+238.692+76.9736+238.251+77.7331C237.81+78.4926+237.283+79.1811+236.67+79.7985C236.058+80.4159+235.345+80.9745+234.531+81.4744C233.836+81.886+233.037+82.2192+232.135+82.474C231.234+82.7288+230.014+82.8562+228.475+82.8562L218.758+82.8562L218.758+82.621L219.052+82.621C219.728+82.621+220.233+82.3662+220.566+81.8566C220.899+81.3469+221.066+80.8079+221.066+80.2395L221.066+63.8928C221.066+63.344+220.975+62.8834+220.794+62.5109C220.613+62.1385+220.37+61.869+220.066+61.7024C219.762+61.5358+219.424+61.4525+219.052+61.4525L218.758+61.4525ZM223.3+62.2316L223.3+79.3869C223.3+80.2297+223.435+80.8496+223.705+81.2465C223.974+81.6434+224.393+81.9007+224.962+82.0183C225.53+82.1359+226.363+82.1947+227.461+82.1947C229.029+82.1947+230.352+82.0403+231.43+81.7316C232.508+81.4229+233.551+80.7344+234.561+79.6662C235.306+78.8724+235.903+77.9022+236.354+76.7556C236.805+75.6089+237.03+74.2222+237.03+72.5954C237.03+71.3115+236.849+70.04+236.487+68.7806C236.124+67.5213+235.57+66.4016+234.825+65.4216C233.992+64.3142+232.922+63.4469+231.613+62.8197C230.305+62.1924+228.73+61.8788+226.887+61.8788C225.937+61.8788+224.741+61.9964+223.3+62.2316ZM50.9444+48.1669L50.9444+58.4617L52.4957+58.4617L52.4957+49.7182L199.217+49.7182L199.217+58.4617L200.797+58.4617L200.797+48.1669L50.9444+48.1669ZM50.9444+85.5383L50.9444+95.8331L200.797+95.8331L200.797+85.5383L199.217+85.5383L199.217+94.2818L52.4957+94.2818L52.4957+85.5383L50.9444+85.5383Z" opacity="1" fill="#000000"/>
</g>
</svg>
